<svg xmlns="http://www.w3.org/2000/svg"  viewBox="0 0 96 96" width="96px" height="96px" baseProfile="basic"><path fill="#ffad00" d="M61.5,73C49.645,73,40,64.028,40,53s9.645-20,21.5-20c3.4,0,6.787,0.757,9.795,2.191 c1.496,0.712,2.13,2.503,1.417,3.999c-0.712,1.496-2.504,2.13-3.999,1.417C66.476,39.541,64.049,39,61.5,39 C52.953,39,46,45.28,46,53s6.953,14,15.5,14S77,60.72,77,53c0-2.589-0.79-5.118-2.283-7.312c-0.932-1.37-0.578-3.236,0.792-4.168 c1.37-0.933,3.236-0.578,4.168,0.792C81.851,45.506,83,49.202,83,53C83,64.028,73.355,73,61.5,73z" opacity=".3"/><path fill="#ffad00" d="M61.5,72C50.196,72,41,63.477,41,53s9.196-19,20.5-19c3.252,0,6.491,0.724,9.365,2.093 c0.997,0.475,1.42,1.669,0.945,2.666c-0.475,0.997-1.668,1.421-2.666,0.945C66.771,38.573,64.199,38,61.5,38 C52.402,38,45,44.729,45,53s7.402,15,16.5,15S78,61.271,78,53c0-2.791-0.849-5.514-2.456-7.875 c-0.622-0.913-0.385-2.157,0.528-2.778c0.913-0.622,2.158-0.385,2.778,0.528C80.911,45.902,82,49.403,82,53 C82,63.477,72.804,72,61.5,72z" opacity=".3"/><path fill="#ffad00" d="M61.5,71C50.748,71,42,62.925,42,53s8.748-18,19.5-18c3.104,0,6.194,0.69,8.935,1.996 c0.499,0.238,0.71,0.834,0.473,1.333c-0.238,0.499-0.835,0.708-1.333,0.473C67.065,37.606,64.349,37,61.5,37 C51.851,37,44,44.178,44,53s7.851,16,17.5,16S79,61.822,79,53c0-2.992-0.909-5.91-2.629-8.438 c-0.311-0.457-0.192-1.079,0.264-1.389c0.456-0.31,1.079-0.193,1.389,0.264C79.971,46.298,81,49.605,81,53 C81,62.925,72.252,71,61.5,71z"/><path fill="#4d4dff" d="M61.5,64c-1.657,0-3-1.343-3-3s1.343-3,3-3c3.584,0,6.5-2.467,6.5-5.5S65.084,47,61.5,47 S55,49.467,55,52.5c0,0.531,0.089,1.054,0.266,1.557c0.096,0.273,0.218,0.541,0.363,0.798c0.815,1.442,0.308,3.272-1.134,4.088 c-1.443,0.816-3.273,0.307-4.088-1.134c-0.319-0.565-0.589-1.159-0.802-1.765C49.204,54.902,49,53.709,49,52.5 C49,46.159,54.607,41,61.5,41S74,46.159,74,52.5S68.393,64,61.5,64z" opacity=".3"/><path fill="#4d4dff" d="M61.5,63c-1.104,0-2-0.896-2-2s0.896-2,2-2c4.136,0,7.5-2.916,7.5-6.5S65.636,46,61.5,46 S54,48.916,54,52.5c0,0.644,0.108,1.279,0.322,1.888c0.115,0.329,0.262,0.651,0.436,0.959c0.544,0.961,0.206,2.182-0.756,2.726 c-0.962,0.544-2.182,0.206-2.726-0.756c-0.291-0.514-0.536-1.053-0.729-1.604C50.185,54.677,50,53.596,50,52.5 C50,46.71,55.159,42,61.5,42S73,46.71,73,52.5S67.841,63,61.5,63z" opacity=".3"/><path fill="#4d4dff" d="M61.5,62c-0.552,0-1-0.448-1-1s0.448-1,1-1c4.687,0,8.5-3.364,8.5-7.5S66.187,45,61.5,45 S53,48.364,53,52.5c0,0.757,0.127,1.503,0.378,2.219c0.135,0.384,0.306,0.761,0.51,1.12c0.271,0.48,0.103,1.091-0.378,1.363 c-0.48,0.271-1.091,0.102-1.363-0.378c-0.261-0.462-0.482-0.947-0.655-1.442C51.166,54.453,51,53.483,51,52.5 c0-5.238,4.71-9.5,10.5-9.5S72,47.262,72,52.5S67.29,62,61.5,62z"/><path fill="#ffad00" d="M61.683,83c-13.791,0-26.076-8.002-30.568-19.912c-0.584-1.55,0.198-3.281,1.749-3.866 c1.549-0.585,3.28,0.198,3.866,1.748C40.345,70.558,50.374,77,61.683,77c14.518,0,26.33-10.57,26.33-23.562 c0-7.112-3.547-13.775-9.732-18.28c-0.102-0.074-0.198-0.154-0.289-0.24L52.227,14.454c-0.422-0.338-0.938-0.487-1.465-0.429 c-0.526,0.059-0.997,0.318-1.328,0.731s-0.48,0.93-0.422,1.456c0.059,0.526,0.318,0.998,0.731,1.328l5.147,4.102 c1.295,1.033,1.509,2.92,0.476,4.216c-1.032,1.296-2.919,1.508-4.216,0.476l-5.151-4.106c-1.669-1.336-2.715-3.236-2.95-5.355 s0.369-4.202,1.701-5.866c1.332-1.664,3.232-2.71,5.351-2.945c2.119-0.233,4.202,0.37,5.866,1.701l25.952,20.613 c0.037,0.029,0.072,0.058,0.106,0.088c7.622,5.646,11.987,14.005,11.987,22.974C94.012,69.738,79.509,83,61.683,83z M9.982,71.99 c-0.386,0-0.774-0.028-1.163-0.084c-2.11-0.307-3.973-1.417-5.248-3.125c-1.274-1.709-1.808-3.812-1.501-5.921 c0.307-2.11,1.417-3.973,3.125-5.248l23.609-17.635h-5.83c-0.006,0-0.012,0-0.018,0c-2.119,0-4.118-0.826-5.624-2.326 c-1.51-1.504-2.344-3.506-2.349-5.638c-0.009-4.4,3.563-7.987,7.964-7.997h20.91c1.657,0,3,1.343,3,3s-1.343,3-3,3H22.955 c-1.086,0.002-1.973,0.893-1.97,1.984c0.001,0.529,0.208,1.026,0.583,1.399c0.374,0.373,0.87,0.577,1.396,0.577 c0.001,0,0.003,0,0.004,0h14.865c1.292,0,2.439,0.828,2.847,2.054c0.407,1.227-0.017,2.576-1.052,3.349L8.785,62.419 c-0.426,0.317-0.701,0.78-0.777,1.303c-0.076,0.524,0.056,1.045,0.373,1.47c0.316,0.424,0.778,0.7,1.302,0.775 c0.523,0.078,1.045-0.056,1.47-0.373l19.391-14.745c1.318-1.004,3.202-0.747,4.204,0.572c1.003,1.319,0.747,3.201-0.572,4.204 L14.762,70.388C13.35,71.441,11.69,71.99,9.982,71.99z" opacity=".3"/><path fill="#ffad00" d="M61.683,82c-13.377,0-25.286-7.742-29.632-19.265c-0.39-1.034,0.132-2.188,1.165-2.577 c1.034-0.391,2.188,0.132,2.577,1.165C39.555,71.298,49.96,78,61.683,78c15.07,0,27.33-11.019,27.33-24.562 c0-7.436-3.697-14.393-10.143-19.088c-0.078-0.057-0.151-0.119-0.22-0.186L52.849,13.67c-0.627-0.502-1.405-0.731-2.197-0.64 c-0.791,0.088-1.5,0.478-1.998,1.1c-1.027,1.283-0.818,3.163,0.464,4.189l5.148,4.104c0.864,0.688,1.006,1.947,0.317,2.811 c-0.688,0.864-1.948,1.006-2.811,0.317l-5.151-4.106c-1.459-1.167-2.374-2.83-2.579-4.683c-0.206-1.853,0.323-3.675,1.488-5.131 c1.165-1.456,2.827-2.371,4.68-2.576c1.854-0.209,3.676,0.323,5.131,1.488l25.955,20.615c0.034,0.027,0.066,0.054,0.098,0.083 c7.385,5.456,11.617,13.534,11.617,22.196C93.012,69.187,78.958,82,61.683,82z M9.981,70.99c-0.338,0-0.678-0.024-1.019-0.074 c-1.845-0.269-3.475-1.239-4.59-2.734c-1.115-1.495-1.582-3.334-1.313-5.179c0.269-1.845,1.239-3.475,2.734-4.59l26.021-19.437 h-8.839c-0.005,0-0.01,0-0.015,0c-1.855,0-3.603-0.722-4.921-2.035c-1.321-1.315-2.051-3.067-2.054-4.932 c-0.008-3.849,3.117-6.986,6.966-6.995h20.908c1.104,0,2,0.896,2,2s-0.896,2-2,2H22.955c-1.639,0.003-2.974,1.343-2.97,2.986 c0.001,0.796,0.313,1.544,0.877,2.106c0.562,0.561,1.309,0.869,2.103,0.869c0.002,0,0.004,0,0.006,0h14.863 c0.861,0,1.626,0.552,1.898,1.369c0.271,0.818-0.011,1.718-0.701,2.233L8.186,61.619c-0.639,0.477-1.053,1.172-1.168,1.96 c-0.115,0.788,0.084,1.573,0.561,2.211s1.172,1.052,1.96,1.167c0.787,0.115,1.573-0.084,2.211-0.561l19.398-14.75 c0.88-0.669,2.134-0.498,2.802,0.381c0.669,0.879,0.498,2.134-0.381,2.802L14.156,69.592C12.925,70.51,11.475,70.99,9.981,70.99z" opacity=".3"/><path fill="#ffad00" d="M61.683,81c-12.964,0-24.496-7.482-28.697-18.618c-0.195-0.517,0.066-1.094,0.583-1.289 c0.515-0.194,1.093,0.065,1.289,0.583C38.766,72.038,49.546,79,61.683,79c15.621,0,28.33-11.467,28.33-25.562 c0-7.759-3.847-15.011-10.554-19.897c-0.051-0.037-0.097-0.078-0.14-0.123l-25.848-20.53c-0.833-0.667-1.878-0.969-2.929-0.851 c-1.057,0.117-2.005,0.639-2.669,1.469c-1.372,1.713-1.093,4.223,0.621,5.595l5.149,4.104c0.432,0.344,0.503,0.974,0.159,1.405 c-0.344,0.434-0.973,0.503-1.406,0.159l-5.151-4.106c-1.249-1-2.032-2.424-2.208-4.012c-0.176-1.587,0.277-3.149,1.275-4.396 s2.422-2.031,4.01-2.207c1.587-0.176,3.149,0.277,4.396,1.275l25.958,20.617c0.028,0.022,0.054,0.046,0.079,0.07 c7.157,5.266,11.258,13.067,11.258,21.426C92.012,68.636,78.406,81,61.683,81z M9.979,69.99c-0.29,0-0.581-0.021-0.873-0.063 c-1.581-0.23-2.978-1.062-3.933-2.342c-0.955-1.281-1.354-2.856-1.125-4.438c0.23-1.581,1.062-2.978,2.342-3.933l28.433-21.238 H22.975c-0.004,0-0.009,0-0.013,0c-1.59,0-3.088-0.619-4.217-1.743c-1.132-1.127-1.757-2.628-1.76-4.225 c-0.007-3.297,2.67-5.986,5.968-5.993h20.906c0.552,0,1,0.448,1,1s-0.448,1-1,1H22.955c-2.193,0.005-3.975,1.794-3.97,3.989 c0.002,1.063,0.418,2.062,1.171,2.812c0.751,0.749,1.748,1.16,2.808,1.16c0.003,0,0.006,0,0.009,0h14.861 c0.431,0,0.813,0.276,0.949,0.685c0.136,0.409-0.006,0.859-0.351,1.117L7.588,60.817c-0.853,0.636-1.406,1.565-1.56,2.618 c-0.153,1.052,0.113,2.101,0.749,2.953c0.635,0.853,1.565,1.406,2.617,1.559c1.051,0.152,2.101-0.113,2.953-0.749l19.405-14.755 c0.44-0.334,1.067-0.249,1.401,0.19c0.334,0.44,0.249,1.067-0.19,1.401L13.551,68.796C12.501,69.58,11.259,69.99,9.979,69.99z"/></svg>